<?xml version="1.0" encoding="utf-8"?>
<!-- Generator: Adobe Illustrator 20.1.0, SVG Export Plug-In . SVG Version: 6.00 Build 0)  -->
<svg version="1.1" id="Layer_1" xmlns="http://www.w3.org/2000/svg" xmlns:xlink="http://www.w3.org/1999/xlink" x="0px" y="0px"
	 width="268px" height="292px" viewBox="0 0 268 292" style="enable-background:new 0 0 268 292;" xml:space="preserve">
<style type="text/css">
	.st0{opacity:0.42;fill:url(#SVGID_1_);}
	.st1{opacity:0.43;fill:#CFE5ED;}
	.st2{fill:#AAC6CE;}
	.st3{fill:#86B1BB;}
	.st4{fill:#3F8CCB;}
	.st5{fill:#CFE5ED;}
	.st6{fill:none;stroke:#3F8CCB;stroke-miterlimit:10;}
	.st7{fill:#1E394C;}
	.st8{fill:#6ABBE9;}
	.st9{fill:#35658D;}
	.st10{fill:#6EB7E5;}
	.st11{opacity:0.25;fill:#35658D;}
	.st12{fill:#F1BF75;}
	.st13{fill:#0F2A3F;}
	.st14{fill:#EA9349;}
	.st15{fill:#80A9B2;}
	.st16{opacity:0.67;fill:#EA9349;}
	.st17{opacity:0.29;fill:#35658D;}
	.st18{opacity:0.48;fill:#1E394C;}
	.st19{fill:#2174AB;}
	.st20{fill:#1B3651;}
</style>
<g>
	<linearGradient id="SVGID_1_" gradientUnits="userSpaceOnUse" x1="134.6666" y1="237.0978" x2="134.6666" y2="-7.5686">
		<stop  offset="0" style="stop-color:#FFFFFF"/>
		<stop  offset="0.1358" style="stop-color:#F5F9FD"/>
		<stop  offset="0.3292" style="stop-color:#E1EDF9"/>
		<stop  offset="0.5573" style="stop-color:#C2DCF3"/>
		<stop  offset="0.8097" style="stop-color:#96C7EB"/>
		<stop  offset="1" style="stop-color:#6EB7E5"/>
	</linearGradient>
	<path class="st0" d="M66.2,254h136.8c30.5-21,50.4-55.7,50.4-94.9c0-64.1-53.2-125.4-118.9-125.4C69,33.7,15.8,94.9,15.8,159
		C15.8,198.3,35.8,232.9,66.2,254z"/>
	<ellipse class="st1" cx="134.7" cy="254.3" rx="125.3" ry="4.9"/>
	<g>
		<rect x="88.1" y="194.9" class="st2" width="5.7" height="54.5"/>
		<rect x="88.1" y="194.9" class="st3" width="5.7" height="7.7"/>
		<path class="st2" d="M116.7,249.4H67c-1.3,0-2.3,1.1-2.3,2.3v2.7H119v-2.7C119,250.5,118,249.4,116.7,249.4z"/>
		<path class="st2" d="M77.4,195h39.5c-14.4-5.2-8.8-53.8-6.2-72.2c0.5-3.7-2.3-7-6.1-7l-26.3,0c-5.4,0-9.9,4-10.7,9.3
			c-2.3,16.7-5.9,51.5,1.3,64.9C70.6,193.1,73.9,195,77.4,195z"/>
	</g>
	<g>
		<circle class="st4" cx="55.6" cy="59.6" r="27.7"/>
		<circle class="st5" cx="55.6" cy="59.6" r="22.6"/>
		<path class="st6" d="M55.6,43.3"/>
		<g>
			<g>
				<path class="st4" d="M49.2,67.3c-0.4,0-0.7-0.1-1-0.4c-0.5-0.5-0.5-1.4,0-2L54,59V43.5c0-0.8,0.6-1.4,1.4-1.4
					c0.8,0,1.4,0.6,1.4,1.4v16.1c0,0.4-0.1,0.7-0.4,1l-6.3,6.3C49.9,67.2,49.5,67.3,49.2,67.3z"/>
			</g>
			<circle class="st7" cx="55.3" cy="59.2" r="3.2"/>
		</g>
	</g>
	<g>
		<path class="st8" d="M213.2,85.4h-47.2c-2.4,0-4.4,2-4.4,4.4V111c0,2.4,2,4.4,4.4,4.4h3.3v5.1c0,0.7,0.8,1.1,1.4,0.6l6.4-5.8h36.2
			c2.4,0,4.4-2,4.4-4.4V89.7C217.6,87.3,215.6,85.4,213.2,85.4z"/>
		<g>
			<circle class="st9" cx="178.1" cy="100.7" r="1.9"/>
			<circle class="st9" cx="190" cy="100.7" r="1.9"/>
			<circle class="st9" cx="201" cy="100.7" r="1.9"/>
		</g>
	</g>
	<g>
		<g>
			<path class="st10" d="M58.5,142.5c0-5.2-3.7-10.4-8.2-10.4c-4.5,0-8.2,5.2-8.2,10.4c0,5.2,3.7,9.4,8.2,9.4
				C54.8,152,58.5,147.7,58.5,142.5z"/>
			<path class="st11" d="M50.3,132.1c-0.7,0-1.4,0.1-2.1,0.4c3.5,1.3,6.1,5.7,6.1,10c0,4.4-2.6,8-6.1,9.1c0.7,0.2,1.4,0.3,2.1,0.3
				c4.5,0,8.2-4.2,8.2-9.4C58.5,137.3,54.8,132.1,50.3,132.1z"/>
		</g>
		<g>
			<path class="st5" d="M40.9,148.7l1.5,13.3c0.2,1.7,1.6,2.9,3.3,2.9h8.5c1.7,0,3.1-1.3,3.3-2.9l1.5-13.3c0.1-0.7-0.5-1.4-1.2-1.4
				H42.1C41.4,147.3,40.8,148,40.9,148.7z"/>
			<path class="st2" d="M42.1,149.3h15.5c0.5,0,0.9,0.3,1.1,0.7l0.1-1.3c0.1-0.7-0.5-1.4-1.2-1.4H42.1c-0.7,0-1.3,0.6-1.2,1.4
				l0.1,1.3C41.3,149.6,41.7,149.3,42.1,149.3z"/>
			<path class="st2" d="M57.7,147.3h-5.4c0.7,0,1.3,0.6,1.2,1.4L52,162c-0.2,1.7-1.6,2.9-3.3,2.9h5.4c1.7,0,3.1-1.3,3.3-2.9
				l1.5-13.3C59,148,58.4,147.3,57.7,147.3z"/>
		</g>
	</g>
	<g>
		<g>
			<g>
				<polygon class="st12" points="125.8,241.4 125.2,245.2 128.2,249 135.6,245.3 136.4,241.8 127.1,240.4 				"/>
				<path class="st7" d="M131.8,253.8l0.8-1c0.1-0.2,0.4-0.2,0.6,0l0.8,0.9c0.3,0.4,0.8,0.6,1.3,0.6l17.3-0.3c0.3-0.3,0.4-0.9,0-1.3
					c-2.5-2.6-16.2-7-16.8-7.3c-0.7-0.4-4.8,2.9-10.4-0.1c0,0-0.9,4.3-1,7.1c-0.1,1.1,0.8,2.1,2,2.1l4.4-0.1
					C131,254.3,131.5,254.1,131.8,253.8z"/>
				<path class="st7" d="M94.1,176.3c0,0-7.2,7.9,6,16.5c9.2,6,16.5,4.2,22.3,7.9c1.4,0.9,2.4,2.1,2.5,3.7l0.3,37.1l0.7,0.3
					c3.5,1.7,7.6,1.8,11.1,0.1l0,0l5.2-42.3c0.2-2.9-1.4-5.4-3.2-7.7c-10-12.8-27.8-17.1-32.3-17.8
					C100.7,173.2,94.1,176.3,94.1,176.3z"/>
			</g>
			<g>
				<polygon class="st12" points="97.2,241.4 96.6,245.2 99.5,249 107,245.5 107.8,241.9 98.6,240.4 				"/>
				<path class="st7" d="M103,253.8l0.8-0.9c0.1-0.2,0.4-0.2,0.6,0l0.8,0.9c0.3,0.4,0.8,0.6,1.2,0.6l17.3-0.1c0.3-0.3,0.4-0.9,0-1.3
					c-2.5-2.6-16.1-7.2-16.7-7.6c-0.7-0.4-4.9,2.8-10.4-0.3c0,0-1,4.3-1.1,7.1c-0.1,1.1,0.8,2.1,2,2.1l4.4,0
					C102.3,254.4,102.7,254.2,103,253.8z"/>
				<path class="st7" d="M72.3,169.3c0,0-8.7,9.7,3.9,20.6c8.8,7.7,16.7,4.4,22.3,9.1c1.3,1.1,2.2,2.6,2.1,4.3l-4,37.7l0.3,0.2
					c3.5,2.3,7.8,2.5,11.6,0.8l0,0l9.8-39.7c0.6-3-0.7-5.8-2.3-8.5c-8.7-14.9-22.4-23.7-27-25.2C82.9,166.8,72.3,169.3,72.3,169.3z"
					/>
			</g>
			<path class="st13" d="M120.2,199.6c-0.7-0.3-1.3-0.5-2-0.7c-0.4-1.8-1.2-3.5-2.2-5.1c-4.3-7.4-9.9-13.3-14.9-17.5
				c3.1-0.5,4.8-1.2,5.6-2.1c1.7,0.3,5.2,1.1,9.4,2.6C120.4,183.9,120.4,195.5,120.2,199.6z"/>
		</g>
		<path class="st5" d="M95.7,118.1c0,0-12.5-1.7-17.7,8.1c-5.2,9.8-13,48.1-6.2,49.2c3,0.5,11,2.5,19.9,1.9
			c12.2-0.9,14.9-2,15.8-4.3l7.8-35.7c0.2-4.9-2-9.6-5.9-12.6C103.1,119.9,95.7,118.1,95.7,118.1z"/>
		<path class="st2" d="M115.2,134.1c0,0,0.2,21.5,6.9,22.8c6.8,1.3,24.7,0.9,24.7,0.9v6.8h-38.6L115.2,134.1z"/>
		<path class="st14" d="M105.9,124.4l1.5-7.6l-9.9-7.5l-1.9,9C95.6,118.2,98.7,131.9,105.9,124.4z"/>
		<path class="st7" d="M118.4,102.3c0,0-5.2,2.5-12.7-2.1c0,0-1.8,3.2-6.8,6c0,0-2.6-4.4-4.1-1.1c-0.5,1-0.7,1.9-0.7,2.7
			c-4.7-6.1-1.4-14.2,3-18.5c4.2-4.1,13.3-2.5,18.9-0.2c6,2.4,7.1-1.8,7.1-1.8C130.7,97.9,118.4,102.3,118.4,102.3z"/>
		<path class="st12" d="M98.9,106.1c0,0-2.6-4.4-4.1-1.1c-1.8,4,0.2,6.5,2.7,6.5c0,0,2,10.4,11.6,9.7c9.6-0.7,11-16.1,9.4-19
			c0,0-5.2,2.5-12.7-2.1C105.7,100.2,104,103.3,98.9,106.1z"/>
		<g>
			<path class="st5" d="M182,130.5h-40c-2,0-3.7,1.4-4.1,3.3l-5.3,26.1H181l5-24.4C186.5,132.9,184.6,130.5,182,130.5z"/>
			<path class="st15" d="M181.5,159.9h-67.2c-0.8,0-1.4,0.6-1.4,1.4v1.8c0,0.8,0.6,1.4,1.4,1.4h67.2c0.8,0,1.4-0.6,1.4-1.4v-1.8
				C182.9,160.6,182.2,159.9,181.5,159.9z"/>
			<path class="st2" d="M180.9,159.9H132c1.1,0,2,0.9,2,2v0.6c0,1.1-0.9,2-2,2h48.8c1.1,0,2-0.9,2-2v-0.6
				C182.9,160.8,182,159.9,180.9,159.9z"/>
		</g>
		<path class="st5" d="M116.9,158.5c-7.8-0.9-29.6-3.1-33.4-3.5c-4.7-0.5,5.5-19.5,6.7-26.1c1.1-6.5-3.8-6.8-3.8-6.8
			c-2.8-0.4-5.9,0-8.5,3.9c-5.3,8.1-11.3,31.7-8.1,37.5c0.4,0.7,1.1,1.1,1.9,1.1h45.3V158.5z"/>
		<path class="st2" d="M116.9,158.5c0,0-28.1-1.9-34.2-2.7c-4.7-0.6,5.1-20.1,6.2-26.7c1.1-6.5-3.9-6.2-3.9-6.2
			c-1.3-0.2-3.1,0-4.4,0.4c1.9-1.2,3.9-1.3,5.7-1.1c0,0,5,0.2,3.8,6.8c-1.1,6.5-9.9,25.2-7,25.9C86.9,155.8,109.1,157.6,116.9,158.5
			z"/>
		<path class="st12" d="M116.9,164.9h10.5c0.8,0,1.3-0.9,0.8-1.5c-1-1.5-2.5-3.6-3.7-4c-0.7-0.2-5.8,0-7.7,0.2V164.9z"/>
		<path class="st16" d="M118.4,102.3c0,0-0.9,0.4-2.4,0.6c-0.1,0.7-0.4,2.1-0.5,3.4c-0.2,1.8,0.7,7.6,0.2,7.6c-0.6,0-1.8,0-1.8,0
			s-0.9,8.3-9.1,6.9c-0.1,0-0.1,0-0.2,0c1.3,0.4,2.7,0.7,4.4,0.6C118.6,120.5,120,105.1,118.4,102.3z"/>
	</g>
	<g>
		<g>
			<path class="st10" d="M238.7,222.3c0,0,13.2-6.5,9.6-16.4c-3.6-9.9-5.8-10.3,1.1-15.9c6.9-5.6,16.8-19.6,4.2-20.7
				c-12.5-1.1-11.9,15.6-22.3,17.9C220.8,189.5,215.1,233.2,238.7,222.3z"/>
			<path class="st11" d="M228.3,223.3c2.5,1.2,5.9,1.1,10.4-1c0,0,13.2-6.5,9.6-16.4s-5.8-10.3,1.1-15.9c6.9-5.6,16.8-19.6,4.2-20.7
				c-1.2-0.1-2.3,0-3.3,0.2c3.5,1.5,7,4.4,2.5,9.8c-7.6,9-11.6,12.1-10.7,17.9C242.9,202.8,242.4,215.6,228.3,223.3z"/>
		</g>
		<g>
			<path class="st10" d="M216.4,222c0,0-11.6-0.4-11-8.7c0.6-8.3,1-8.7-6.3-11.3c-12.9-4.6-2.7-29.3,7.8-13.8
				c7.3,10.8,10.4,8.4,15.2,9.2C226.8,198.2,237.1,225.7,216.4,222z"/>
			<path class="st17" d="M222,197.3c-4.7-0.8-7.9,1.6-15.2-9.2c-5.5-8.1-10.9-5.2-12.9,0c3.1-0.9,7.8-1.5,8.4,3.5
				c0.8,6.5,16,17.2,15.7,30.5c0.2,0,0.4,0,0.6,0.1c2.2-5.8,5.1-13.4,7.7-19.9C224.9,199.6,223.3,197.6,222,197.3z"/>
		</g>
		<g>
			<path class="st9" d="M219,221.6c0,0-14.4-14.1-9.5-16.4c4.9-2.4,14.5,5.4,9.2-3s-11.6-21.4-4.2-19.4s8,4.3,7.1-5.4
				c-1.2-12.6,5.9-19.1,12.5-15c6.6,4.1-5.7,31.9-1.1,28.9c4.6-3,8.4-5.5,9.3-1.9c0.9,3.6-13.1,17.9-7.9,15.5c6.5-3,7.4,2.4,5.4,5.7
				C237.7,213.9,229.2,233.6,219,221.6z"/>
			<path class="st18" d="M239.8,210.5c2.1-3.3,1.1-8.7-5.4-5.7c-5.2,2.4,8.9-11.9,7.9-15.5s-4.7-1.1-9.3,1.9
				c-4.6,3,7.7-24.8,1.1-28.9c-3.1-1.9-6.3-1.5-8.6,0.7c3.4,0.8,6.2,3.6,4.3,11.1c-4,15.8-6.5,29,0.9,25.1c7-3.6-8.1,13.1-8.2,25.2
				C231,229.4,237.9,213.5,239.8,210.5z"/>
		</g>
		<g>
			<path class="st5" d="M209.1,223.3l2.8,25.2c0.3,3.2,3,5.5,6.2,5.5h16.1c3.2,0,5.8-2.4,6.2-5.5l2.8-25.2c0.2-1.4-0.9-2.6-2.3-2.6
				h-29.4C210,220.7,208.9,221.9,209.1,223.3z"/>
			<path class="st2" d="M240.8,220.7h-10.2c1.4,0,2.5,1.2,2.3,2.6l-2.8,25.2c-0.3,3.2-3,5.5-6.2,5.5h10.2c3.2,0,5.8-2.4,6.2-5.5
				l2.8-25.2C243.2,221.9,242.2,220.7,240.8,220.7z"/>
		</g>
	</g>
	<g>
		<g>
			<path class="st4" d="M210.5,164.8H36.2c-1.4,0-2.5,1.1-2.5,2.5v3.2c0,1.4,1.1,2.5,2.5,2.5h174.4c1.4,0,2.5-1.1,2.5-2.5v-3.2
				C213,165.9,211.9,164.8,210.5,164.8z"/>
			<path class="st19" d="M209.5,164.8H37.2c-1.9,0-3.5,1.6-3.5,3.5v1.1c0,0.4,0.1,0.7,0.2,1.1c0.5-1.4,1.8-2.4,3.3-2.4h172.3
				c1.6,0,2.9,1,3.3,2.4c0.1-0.3,0.2-0.7,0.2-1.1v-1.1C213,166.4,211.5,164.8,209.5,164.8z"/>
		</g>
		<g>
			<g>
				<g>
					<polygon class="st9" points="91.7,254.1 85.9,254.1 45.8,173 51.6,173 					"/>
				</g>
			</g>
			<g>
				<g>
					<polygon class="st9" points="28.2,254.1 34,254.1 74.1,173 68.3,173 					"/>
				</g>
			</g>
			<g>
				<g>
					<polygon class="st9" points="215.7,254.1 210,254.1 169.9,173 175.7,173 					"/>
				</g>
			</g>
			<g>
				<g>
					<polygon class="st9" points="152.3,254.1 158.1,254.1 198.1,173 192.4,173 					"/>
				</g>
			</g>
			<g>
				<g>
					<polygon class="st20" points="53.2,176.2 51.6,173 45.8,173 47.4,176.2 					"/>
				</g>
			</g>
			<g>
				<g>
					<polygon class="st20" points="72.5,176.2 74.1,173 68.3,173 66.7,176.2 					"/>
				</g>
			</g>
			<g>
				<g>
					<polygon class="st20" points="177.2,176.2 175.7,173 169.9,173 171.5,176.2 					"/>
				</g>
			</g>
			<g>
				<g>
					<polygon class="st20" points="196.6,176.2 198.1,173 192.4,173 190.8,176.2 					"/>
				</g>
			</g>
		</g>
	</g>
</g>
</svg>
